<svg xmlns="http://www.w3.org/2000/svg" width="123.09mm" height="49.63mm" viewBox="0 0 348.93 140.69"><defs><style>.cls-1{fill:#0086eb;}</style></defs><title>koren-logo</title><path d="M44.84,133h-5.4v26.8h-19v-70h19v26.3h5.5l17.65-26.3h23.1L60.34,123.94l27.6,35.85H64.59Z" transform="translate(-20.44 -20.4)"/><path d="M137.62,135c0,15-11.45,26.1-27,26.1s-27-11.05-27-26.1,11.45-26.1,27-26.1S137.62,119.94,137.62,135Zm-35.8,0c0,5.55,3.7,9.55,8.8,9.55s8.8-4,8.8-9.55-3.7-9.55-8.8-9.55S101.82,129.44,101.82,135Z" transform="translate(-20.44 -20.4)"/><path d="M177.65,109.39l-1,17.8a31.34,31.34,0,0,0-7.8-1.15c-4.95,0-7.95,1.75-7.95,7.2v26.55H143.05V110.24h17v5c2.75-4.4,7.1-6.35,13.15-6.35A22.24,22.24,0,0,1,177.65,109.39Z" transform="translate(-20.44 -20.4)"/><path d="M230.29,135a38,38,0,0,1-.35,5.3H197.59c1.2,4,4.2,6,8.9,6a13.56,13.56,0,0,0,9.35-4l12.2,10.2c-4.8,5.2-12.6,8.6-22.4,8.6-15.85,0-26.45-10.3-26.45-25.65,0-15.7,10.5-26.55,25.75-26.55C219.94,108.89,230.24,119.49,230.29,135Zm-32.65-5.45h14.9c-1.3-3.85-3.8-5.7-7.5-5.7S198.79,125.69,197.64,129.54Z" transform="translate(-20.44 -20.4)"/><path d="M254.65,95.74a10.2,10.2,0,1,1-10.2-10.2A10.05,10.05,0,0,1,254.65,95.74Zm-1.25,64.05H235.6V110.24h17.8Z" transform="translate(-20.44 -20.4)"/><path d="M309.51,127.54v32.25h-17.8V133.14c0-4.95-2.35-7.6-6.25-7.6-3.55,0-6.2,2.35-6.2,7.7v26.55h-17.8V110.24h17v5.1c2.8-4.3,7.2-6.45,13.4-6.45C302.06,108.89,309.51,116.14,309.51,127.54Z" transform="translate(-20.44 -20.4)"/><path class="cls-1" d="M357.1,59.05c-10,24.11-15.27,34.1-34.11,34.1s-33.52-15.28-34.1-34.1c-.82-26.71,10.27-32.46,33.69-37.8C345,16.13,367.09,34.93,357.1,59.05Z" transform="translate(-20.44 -20.4)"/><path d="M364.37,64.34A31.51,31.51,0,1,1,339,33.42c14.78,3,25,16,25.33,30.92.06,3.21,5.06,3.22,5,0A36.51,36.51,0,1,0,301.44,83,36.89,36.89,0,0,0,339.7,100.2C357,97,369,81.59,369.37,64.34,369.43,61.12,364.43,61.12,364.37,64.34Z" transform="translate(-20.44 -20.4)"/></svg>